<svg width="58" height="52" viewBox="0 0 58 52" fill="none" xmlns="http://www.w3.org/2000/svg">
<path d="M52.3885 21.346H45.1378C43.2666 21.346 41.7463 19.7742 41.7463 17.8396V9.25488H55.78V17.8396C55.78 19.7742 54.2597 21.346 52.3885 21.346Z" stroke="#FDB61C" stroke-width="2.4" stroke-miterlimit="10"/>
<path d="M45.2548 9.25467V5.62734C45.2548 3.57185 46.7751 2 48.7632 2C50.7513 2 52.2716 3.57185 52.2716 5.62734V9.25467" stroke="#FDB61C" stroke-width="2.4" stroke-miterlimit="10"/>
<path d="M34.1292 11.4324C34.2525 6.3338 30.3074 2 25.2527 2C25.1294 2 25.0061 2 24.8828 2C19.8281 2 15.3898 6.20633 15.6364 11.4324C15.6364 12.4521 16.6227 17.8056 16.6227 17.8056C17.3624 22.3943 20.3213 26.2183 24.7595 26.2183C29.1978 26.2183 32.1567 22.3943 33.0197 17.8056C33.0197 17.8056 34.0059 12.5796 34.1292 11.4324Z" stroke="#565960" stroke-width="2.5" stroke-miterlimit="10"/>
<path d="M45.6327 49.4373H4.00926L4.74897 41.2599C5.24212 37.8183 8.57082 35.3965 12.0228 34.7592L24.8826 32.7197L37.8657 34.7592C41.6876 35.5239 45.0163 37.6908 45.2629 41.6422L45.6327 49.4373Z" stroke="#565960" stroke-width="2.5" stroke-miterlimit="10"/>
</svg>
