<svg width="26" height="26" viewBox="0 0 26 26" fill="none" xmlns="http://www.w3.org/2000/svg">
<path d="M24.2532 0.839844V9.99902" stroke="#0D1C3D" stroke-width="2" stroke-miterlimit="10"/>
<path d="M24.3032 13C24.5794 13 24.8032 13.2239 24.8032 13.5C24.8032 13.7761 24.5794 14 24.3032 14C24.0271 14 23.8032 13.7761 23.8032 13.5C23.8032 13.2239 24.0271 13 24.3032 13Z" fill="#0D1C3D" stroke="#0D1C3D" stroke-width="2"/>
<path d="M16.0746 5.67368C16.1345 3.14737 14.2158 1 11.7575 1C11.6975 1 11.6376 1 11.5776 1C9.11931 1 6.96078 3.08421 7.0807 5.67368C7.0807 6.17895 7.56037 8.83158 7.56037 8.83158C7.92013 11.1053 9.35914 13 11.5177 13C13.6762 13 15.1152 11.1053 15.5349 8.83158C15.5349 8.83158 16.0146 6.2421 16.0746 5.67368Z" stroke="#0D1C3D" stroke-width="2" stroke-miterlimit="10"/>
<path d="M22.0759 25H1.07593L1.41739 20.3381C1.64503 18.5899 3.18162 17.3597 4.77511 17.036L11.6044 16L18.4906 17.036C20.2548 17.4245 21.7914 18.5252 21.9052 20.5324L22.0759 25Z" stroke="#0D1C3D" stroke-width="2" stroke-miterlimit="10"/>
</svg>
