<svg width="20" height="20" viewBox="0 0 20 20" fill="none" xmlns="http://www.w3.org/2000/svg">
<circle cx="10" cy="10" r="10" fill="#FDB61C"/>
<path d="M9.43923 14.1426C9.43923 14.4518 9.68991 14.7025 9.99915 14.7025C10.3084 14.7025 10.5591 14.4518 10.5591 14.1426H9.99915H9.43923ZM10.3951 5.52607C10.1764 5.30741 9.82189 5.30741 9.60322 5.52607L6.03994 9.08936C5.82128 9.30802 5.82128 9.66254 6.03994 9.8812C6.2586 10.0999 6.61312 10.0999 6.83178 9.8812L9.99915 6.71383L13.1665 9.8812C13.3852 10.0999 13.7397 10.0999 13.9584 9.8812C14.177 9.66254 14.177 9.30802 13.9584 9.08936L10.3951 5.52607ZM9.99915 14.1426H10.5591L10.5591 5.92199H9.99915H9.43923L9.43923 14.1426H9.99915Z" fill="#0D1C3D"/>
</svg>
