<svg width="23" height="28" viewBox="0 0 23 28" fill="none" xmlns="http://www.w3.org/2000/svg">
<path d="M1 4.28193V22.2673C1 24.6028 2.99048 26.5137 5.42328 26.5137H17.3757C19.8085 26.5137 21.7989 24.6028 21.7989 22.2673V6.4051H3.10106C1.93995 6.4051 1 5.50275 1 4.38809C1 3.53882 1.6082 2.84879 2.43757 2.68955L19.5873 1.09717V6.4051" stroke="#0D1C3D" stroke-width="2" stroke-miterlimit="10"/>
<path d="M10.4699 18.158C12.2712 18.158 13.7314 16.7562 13.7314 15.027C13.7314 13.2978 12.2712 11.896 10.4699 11.896C8.66868 11.896 7.20847 13.2978 7.20847 15.027C7.20847 16.7562 8.66868 18.158 10.4699 18.158Z" stroke="#0D1C3D" stroke-width="2" stroke-miterlimit="10"/>
<path d="M12.7816 17.2476L16.6954 21.0048" stroke="#0D1C3D" stroke-width="2" stroke-miterlimit="10"/>
</svg>
