<svg width="28" height="28" viewBox="0 0 28 28" fill="none" xmlns="http://www.w3.org/2000/svg">
<rect x="0.756757" y="0.756757" width="26.4865" height="26.4865" rx="3.78378" stroke="#0D1C3D" stroke-width="1.51351"/>
<g clip-path="url(#clip0_34_1375)">
<path d="M14.0025 14.8417L16.0897 14.834L16.109 20.1324C16.1135 21.2833 15.1803 22.2229 14.0295 22.2274C12.8786 22.2319 11.939 21.2987 11.9345 20.1478L11.9332 19.1202L12.8921 18.539L12.8979 20.1446C12.9004 20.7644 13.4059 21.2666 14.0256 21.2647C14.6454 21.2627 15.1476 20.7566 15.1457 20.1369L15.1296 15.8018L14.0025 14.8423V14.8417Z" fill="#0D1C3D" stroke="#0D1C3D" stroke-width="0.4"/>
<path d="M16.1091 20.1308L16.0897 14.8324L14.0025 14.8401V14.8407L15.1296 15.8003L15.1456 20.1354C15.1475 20.7551 14.6453 21.2612 14.0256 21.2631V21.2317C14.6279 21.2298 15.1161 20.7378 15.1142 20.1354L15.0982 15.8147L13.9819 14.8647L13.9709 14.8552V14.8088H14.0022L16.0897 14.8011L16.1211 14.8008V14.8324L16.1405 20.1308C16.145 21.299 15.1978 22.2528 14.0296 22.2573C12.8613 22.2619 11.9077 21.3147 11.9031 20.1465L11.9018 19.1187V19.1009L11.9169 19.0917L12.9234 18.4817V18.5374L12.9293 20.1428C12.9318 20.7452 13.4232 21.2336 14.0256 21.2317V21.2631L13.9678 21.2619C13.3939 21.2345 12.931 20.7746 12.8995 20.2009L12.8979 20.1431L12.8921 18.5374L11.9332 19.1187L11.9344 20.1462C11.9389 21.297 12.8785 22.2301 14.0293 22.2257C15.1442 22.2213 16.0549 21.3395 16.1066 20.2381L16.1091 20.1308Z" fill="#0D1C3D"/>
<path d="M14.0256 21.2631C14.6453 21.2612 15.1475 20.7551 15.1456 20.1354L15.1296 15.8003L14.0025 14.8407V14.8401L16.0897 14.8324L16.1091 20.1308L16.1066 20.2381C16.0549 21.3395 15.1442 22.2213 14.0293 22.2257C12.8785 22.2301 11.9389 21.297 11.9344 20.1462L11.9332 19.1187L12.8921 18.5374L12.8979 20.1431L12.8995 20.2009C12.931 20.7746 13.3939 21.2345 13.9678 21.2619L14.0256 21.2631ZM14.0256 21.2631V21.2317M14.0256 21.2317C14.6279 21.2298 15.1161 20.7378 15.1142 20.1354L15.0982 15.8147L13.9819 14.8647L13.9709 14.8552V14.8088H14.0022L16.0897 14.8011L16.1211 14.8008V14.8324L16.1405 20.1308C16.145 21.299 15.1978 22.2528 14.0296 22.2573C12.8613 22.2619 11.9077 21.3147 11.9031 20.1465L11.9018 19.1187V19.1009L11.9169 19.0917L12.9234 18.4817V18.5374L12.9293 20.1428C12.9318 20.7452 13.4232 21.2336 14.0256 21.2317Z" stroke="#0D1C3D" stroke-width="0.4"/>
<path d="M13.2931 14.4355L14.3432 16.2396L9.76405 18.9055C8.76923 19.4848 7.48926 19.1463 6.90997 18.1521C6.33068 17.1573 6.66913 15.8774 7.66331 15.2981L8.5528 14.783L9.53542 15.3225L8.14755 16.1304C7.61193 16.4425 7.43018 17.1316 7.74166 17.6673C8.05314 18.2029 8.7429 18.3846 9.27852 18.0732L13.0247 15.8921L13.2918 14.4362L13.2931 14.4355Z" fill="#0D1C3D" stroke="#0D1C3D" stroke-width="0.4"/>
<path d="M13.3204 14.4181L14.3703 16.2221L14.3863 16.2495L14.3589 16.2652L9.77997 18.9313C8.77014 19.5193 7.47075 19.1758 6.88269 18.1667C6.29464 17.1568 6.63841 15.8574 7.64759 15.2694L8.55238 14.7455L8.56806 14.7538L9.55062 15.2934L9.59951 15.3201L9.55124 15.3481L8.16347 16.156C7.64288 16.4594 7.4663 17.1293 7.76903 17.6499C8.07172 18.1704 8.74196 18.3472 9.26256 18.0446L12.9961 15.8707L13.2608 14.4292L13.2638 14.4135L13.2777 14.4067L13.2789 14.4058L13.3053 14.3926L13.3204 14.4181ZM13.2918 14.4347L13.0247 15.8907L9.27854 18.0717C8.7597 18.3734 8.09628 18.2123 7.77211 17.715L7.74167 17.6659C7.43995 17.147 7.60108 16.4841 8.0983 16.1594L8.14749 16.129L9.53556 15.321L8.55269 14.7815L7.66327 15.2967L7.57196 15.353C6.64889 15.9557 6.34888 17.187 6.91005 18.1507C7.48935 19.1448 8.76918 19.4832 9.76399 18.9039L14.3432 16.2381L13.293 14.4341L13.2918 14.4347Z" fill="#0D1C3D" stroke="#0D1C3D" stroke-width="0.4"/>
<path d="M13.2897 13.616L12.2525 15.4271L7.65472 12.7946C6.6554 12.223 6.3086 10.945 6.88019 9.94629C7.45177 8.94762 8.72981 8.60017 9.72849 9.17176L10.6193 9.68426L10.6437 10.805L9.25002 10.0073C8.71247 9.69968 8.024 9.88657 7.71637 10.4241C7.40874 10.9617 7.59563 11.6501 8.13318 11.9578L11.8954 14.1118L13.2897 13.6154V13.616Z" fill="#0D1C3D" stroke="#0D1C3D" stroke-width="0.4"/>
<path d="M6.85284 9.93082C7.43307 8.91705 8.73052 8.56448 9.74428 9.1447L10.6349 9.6572L10.6503 9.66581L10.6506 9.68364L10.6764 10.8602L10.6279 10.8325L9.23424 10.0347C8.71178 9.7358 8.04276 9.91753 7.74379 10.4399C7.44479 10.9624 7.62626 11.6317 8.14869 11.9307L11.8982 14.0772L13.2792 13.5859L13.321 13.5709V13.6244L13.317 13.6317L12.264 15.4702L7.63896 12.8219C6.62463 12.2417 6.27267 10.9445 6.85284 9.93082ZM9.7286 9.17176C8.72993 8.60017 7.45179 8.94782 6.8802 9.94649L6.82917 10.0409C6.33087 11.0243 6.68665 12.2408 7.65463 12.7946L12.2523 15.4272L13.2896 13.6161V13.6154L11.8954 14.1119L8.13301 11.9577C7.61235 11.6597 7.42081 11.0043 7.68907 10.475L7.71643 10.4243C8.02405 9.88674 8.71239 9.6998 9.24992 10.0074L10.6435 10.8052L10.6192 9.68425L9.7286 9.17176Z" fill="#0D1C3D" stroke="#0D1C3D" stroke-width="0.4"/>
<path d="M13.9968 13.2021L11.9095 13.2098L11.8902 7.91138C11.8858 6.7605 12.8189 5.82092 13.9698 5.81642C15.1207 5.81193 16.0603 6.74509 16.0648 7.89597L16.066 8.92354L15.1072 9.50476L15.1014 7.89918C15.0988 7.27943 14.5934 6.7772 13.9736 6.77913C13.3539 6.78106 12.8517 7.28713 12.8536 7.90689L12.8697 12.242L13.9968 13.2015V13.2021Z" fill="#0D1C3D" stroke="#0D1C3D" stroke-width="0.4"/>
<path d="M16.0649 7.89603C16.0604 6.74518 15.1206 5.81204 13.9697 5.81653C12.8189 5.82106 11.8858 6.76059 11.8902 7.9114L11.9096 13.2101L13.9968 13.2021V13.2015L12.8697 12.2419L12.8537 7.9071C12.8518 7.28734 13.354 6.78104 13.9737 6.77911L14.0315 6.78065C14.6246 6.80901 15.0989 7.29907 15.1014 7.89941L15.1072 9.50484L16.0661 8.92379L16.0649 7.89603ZM16.0975 8.92348V8.94131L16.0824 8.95054L15.0759 9.5608L15.0756 9.50515L15.07 7.89941C15.0675 7.29703 14.5761 6.80891 13.9737 6.81078C13.3714 6.81266 12.8833 7.30446 12.8851 7.90679L12.9008 12.2272L14.0171 13.1775L14.0281 13.187V13.2334L13.9968 13.2337L11.9096 13.2414H11.8782L11.8779 13.2101L11.8589 7.91171C11.8543 6.74343 12.8015 5.78974 13.9697 5.78517C15.138 5.78064 16.0917 6.7278 16.0963 7.89603L16.0975 8.92348Z" fill="#0D1C3D" stroke="#0D1C3D" stroke-width="0.4"/>
<path d="M14.7068 13.6104L13.6567 11.8064L18.2358 9.14051C19.2307 8.56122 20.5106 8.89968 21.0899 9.89385C21.6692 10.8887 21.3308 12.1686 20.3366 12.7479L19.4471 13.263L18.4645 12.7235L19.8523 11.9156C20.388 11.6035 20.5697 10.9144 20.2582 10.3787C19.9467 9.84312 19.257 9.66136 18.7214 9.97285L14.9752 12.1539L14.7081 13.6098L14.7068 13.6104Z" fill="#0D1C3D" stroke="#0D1C3D" stroke-width="0.4"/>
<path d="M18.3156 9.06109C19.3104 8.54763 20.5473 8.90064 21.117 9.87826C21.6866 10.8565 21.3822 12.1062 20.4452 12.718L20.3524 12.7752L19.4476 13.2994L18.4493 12.7512L18.4004 12.7245L18.4487 12.6965L19.8365 11.8886C20.3571 11.5852 20.5337 10.9154 20.2309 10.3947C19.9282 9.87419 19.2577 9.69755 18.7371 10.0003L15.0033 12.1739L14.7389 13.6158L14.7361 13.6311L14.6943 13.652L14.6795 13.6265L13.6293 11.8225L13.6137 11.7951L13.6407 11.7794L18.22 9.11336L18.3156 9.06109ZM21.0899 9.89394C20.5106 8.89983 19.2308 8.5615 18.236 9.14072L13.6567 11.8065L14.7069 13.6105L14.7081 13.6099L14.9753 12.1539L18.7214 9.97295C19.257 9.66153 19.9468 9.84321 20.2583 10.3788C20.5697 10.9143 20.388 11.6035 19.8525 11.9156L18.4644 12.7236L19.447 13.2631L20.3367 12.7482C21.3308 12.1689 21.6692 10.8887 21.0899 9.89394Z" fill="#0D1C3D" stroke="#0D1C3D" stroke-width="0.4"/>
<path d="M14.71 14.4283L15.7472 12.6172L20.3456 15.2497C21.3442 15.8213 21.6917 17.0993 21.1201 18.098C20.5485 19.0967 19.2705 19.4441 18.2718 18.8725L17.381 18.36L17.3566 17.2393L18.7502 18.037C19.2878 18.3446 19.9763 18.1577 20.2839 17.6202C20.5915 17.0826 20.4046 16.3942 19.8671 16.0865L16.1049 13.9325L14.7106 14.4289L14.71 14.4283Z" fill="#0D1C3D" stroke="#0D1C3D" stroke-width="0.4"/>
<path d="M20.3613 15.2244C21.375 15.8047 21.7276 17.1018 21.1474 18.1156C20.5672 19.1293 19.27 19.4821 18.2563 18.902L17.3653 18.3895L17.35 18.3806L17.3497 18.3627L17.3238 17.1865L17.3724 17.2142L18.766 18.0116C19.2885 18.3106 19.9575 18.1289 20.2565 17.6064C20.5554 17.084 20.3739 16.415 19.8516 16.116L16.1018 13.9689L14.7211 14.4608L14.7023 14.4672L14.6885 14.4531L14.6879 14.4525L14.6707 14.4355L15.7356 12.5762L20.3613 15.2244ZM14.71 14.4303L14.7106 14.4309L16.1048 13.9344L19.8673 16.0886C20.4047 16.3963 20.5914 17.0846 20.2838 17.6221C19.9858 18.1429 19.3305 18.3346 18.8011 18.0664L18.7503 18.039L17.3567 17.2412L17.381 18.3621L18.272 18.8746C19.2706 19.4461 20.5485 19.0985 21.1201 18.0999C21.6737 17.1324 21.365 15.903 20.4372 15.3074L20.3456 15.2518L15.7473 12.6192L14.71 14.4303Z" fill="#0D1C3D" stroke="#0D1C3D" stroke-width="0.4"/>
</g>
<defs>
<clipPath id="clip0_34_1375">
<rect width="15.4259" height="17" fill="white" transform="translate(6.29001 5.50391)"/>
</clipPath>
</defs>
</svg>
