<svg width="63" height="51" viewBox="0 0 63 51" fill="none" xmlns="http://www.w3.org/2000/svg">
<path d="M44.5636 30.732C44.8819 31.0325 45.075 31.4899 44.8458 31.9665C44.613 32.4502 44.2602 32.78 43.7318 32.7879L43.72 32.7886L43.7299 32.6382L43.7196 32.7877L38.076 32.4231L38.0764 32.4218C36.0929 32.3169 34.1314 32.4385 32.176 32.4227C31.4986 32.433 30.8302 32.4429 30.298 32.4954L30.2906 32.4959L30.2819 32.496C28.2916 32.4798 26.4639 31.4425 25.5534 29.689C25.3694 29.3345 25.1758 28.9609 25.0743 28.5371C24.581 26.6839 25.2453 24.585 26.7151 23.3533L26.7147 23.3525C28.5941 21.7921 31.2384 21.707 33.2527 23.1129L33.255 23.1151C33.8006 23.5115 34.354 23.9127 34.7711 24.2723C36.2734 25.419 37.9089 26.6065 39.5857 27.6584L44.4106 30.6068L44.4203 30.6128L44.5636 30.732ZM38.4184 29.6893L38.4154 29.6876L38.4158 29.6863C36.7253 28.6258 35.0298 27.3391 33.3919 26.1491C33.1142 25.9473 32.8586 25.7327 32.6156 25.5354C32.3705 25.3365 32.1373 25.1541 31.896 25.0056L31.8885 25.0018L31.8828 24.9971C30.8714 24.2129 29.5303 24.2527 28.4879 24.9857L28.2828 25.1417L28.2798 25.1444C27.4377 25.7961 27.0701 26.9552 27.3837 27.9731L27.386 27.9774C27.7517 29.3106 28.8819 30.2301 30.2456 30.1668L30.25 30.1667C30.9406 30.1562 31.5067 30.1921 32.1227 30.0946L32.1375 30.0935C34.1248 29.9729 36.1607 29.9412 38.2909 30.09L38.2913 30.0909L39.1978 30.1562L38.4184 29.6893Z" fill="#FDB61C" stroke="#FDB61C" stroke-width="0.3"/>
<path d="M31.2335 0.209473C39.5157 0.209473 47.0507 3.56739 52.548 8.98584C52.6078 9.02726 52.6658 9.07436 52.7198 9.12842C52.7721 9.18065 52.8171 9.23678 52.8575 9.29443C55.5827 12.0578 57.7848 15.3371 59.3029 18.9673C59.3435 19.0272 59.3799 19.0916 59.4083 19.1626C59.4356 19.2308 59.4545 19.3008 59.4689 19.3706C60.8664 22.8529 61.6378 26.6475 61.6378 30.6138C61.6378 37.5043 59.4089 44.0936 55.0499 49.4663L55.049 49.4653C54.8118 49.8122 54.4596 49.9253 54.1261 49.9253H8.34192C8.00828 49.9253 7.65529 49.8125 7.41809 49.4653C3.05928 44.0926 0.829224 37.504 0.829224 30.6138C0.829313 22.3299 4.18788 14.7929 9.60852 9.29541C9.64923 9.23705 9.69559 9.181 9.74817 9.12842C9.80206 9.07452 9.85943 9.02717 9.91907 8.98584C12.6829 6.26144 15.9615 4.05778 19.5919 2.54053C19.6504 2.50138 19.7136 2.46648 19.7823 2.43896C19.8529 2.41076 19.925 2.3899 19.9972 2.37549C23.4776 0.979805 27.27 0.209515 31.2335 0.209473ZM32.3917 9.43604C32.3917 9.77266 32.2798 10.0655 32.0714 10.2739C31.863 10.4823 31.5701 10.5942 31.2335 10.5942C30.8971 10.5942 30.6049 10.4821 30.3966 10.2739C30.1882 10.0655 30.0753 9.77266 30.0753 9.43604V2.5542C27.1698 2.67352 24.3745 3.23741 21.757 4.18311L22.8009 6.7583C23.0263 7.3218 22.8098 8.0162 22.2238 8.2583L22.2247 8.25928C22.1149 8.31422 22.0263 8.34506 21.9474 8.36084C21.8684 8.37662 21.8047 8.37549 21.754 8.37549C21.3181 8.37546 20.839 8.15858 20.7072 7.67725L19.6407 5.04736C16.9096 6.2955 14.4106 7.97026 12.2277 9.98389L14.1954 11.9517C14.6573 12.4137 14.6573 13.1137 14.1954 13.5757C14.0858 13.6854 13.97 13.7745 13.8351 13.8345C13.6997 13.8946 13.5524 13.9223 13.3839 13.9224C13.2151 13.9224 13.0673 13.8947 12.9318 13.8345C12.7969 13.7745 12.6811 13.6854 12.5714 13.5757L10.6036 11.6079C8.68465 13.6883 7.07421 16.0562 5.8468 18.6382L8.49719 19.7847C9.0915 20.0223 9.31264 20.7234 9.08606 21.2905L9.08118 21.3022H9.0802C8.97044 21.5217 8.82909 21.6956 8.65149 21.814C8.47301 21.9329 8.26698 21.9907 8.03918 21.9907C7.98966 21.9907 7.90207 21.991 7.81262 21.9761C7.73662 21.9634 7.641 21.9343 7.56165 21.8706L4.95129 20.7417C3.91732 23.4728 3.29844 26.403 3.17297 29.4556H10.0558C10.3923 29.4556 10.6843 29.5686 10.8927 29.7769C11.101 29.9852 11.2139 30.2773 11.214 30.6138C11.214 30.9504 11.1011 31.2433 10.8927 31.4517C10.6843 31.6599 10.3922 31.7729 10.0558 31.7729H3.172C3.28781 34.6455 3.83395 37.4428 4.79114 40.0952L7.37805 39.0474L7.48645 39.0093C8.03148 38.8491 8.66103 39.0781 8.88391 39.6353C9.1105 40.2023 8.89038 40.9033 8.29602 41.1411L5.65735 42.2104C6.52722 44.1083 7.61603 45.9173 8.92004 47.6079H53.6466C54.8281 46.0349 55.8331 44.3592 56.6564 42.605L53.9659 41.4419V41.4409C53.3746 41.2017 53.1556 40.5029 53.382 39.937C53.6197 39.3428 54.3207 39.1224 54.8878 39.3491L54.8917 39.3511L57.5441 40.4976C58.5786 37.7261 59.1744 34.791 59.296 31.7729H52.4122C52.0756 31.7729 51.7827 31.6601 51.5743 31.4517C51.366 31.2433 51.2531 30.9504 51.2531 30.6138C51.2532 30.2774 51.3661 29.9852 51.5743 29.7769C51.7827 29.5685 52.0756 29.4556 52.4122 29.4556H59.2941C59.1747 26.55 58.6099 23.7548 57.6642 21.1372L55.09 22.1812L55.0626 22.1919H55.0333C54.9598 22.1919 54.9046 22.21 54.8497 22.2319C54.8259 22.2415 54.7872 22.2584 54.757 22.269C54.7233 22.2809 54.6796 22.2935 54.63 22.2935C54.1938 22.2934 53.7146 22.0753 53.5831 21.5933C53.3566 21.0262 53.5767 20.3252 54.171 20.0874L56.799 19.021C55.5508 16.29 53.877 13.7908 51.8634 11.6079L49.8956 13.5767C49.6641 13.8081 49.3228 13.9222 49.0841 13.9224C48.9154 13.9224 48.7675 13.8947 48.632 13.8345C48.4971 13.7745 48.3813 13.6863 48.2716 13.5767V13.5757C47.81 13.1136 47.8098 12.4135 48.2716 11.9517L50.2394 9.98389C48.1588 8.06473 45.7905 6.45447 43.2081 5.22705L42.0616 7.88232L42.0607 7.88135C41.995 8.06722 41.8467 8.2382 41.6681 8.36182C41.4843 8.48895 41.2536 8.57764 41.0157 8.57764C40.9662 8.57764 40.8786 8.57788 40.7892 8.56299C40.7127 8.55022 40.6167 8.52104 40.5372 8.45654C39.9581 8.21124 39.7447 7.52116 39.9689 6.96045L39.9708 6.95654L41.1056 4.33154C38.3745 3.29761 35.4443 2.67863 32.3917 2.55322V9.43604Z" fill="#78716C" stroke="#78716C" stroke-width="0.3"/>
</svg>
