<svg width="50" height="52" viewBox="0 0 50 52" fill="none" xmlns="http://www.w3.org/2000/svg">
<g clip-path="url(#clip0_28_288)">
<path d="M13.0987 6.88238C14.4043 8.07138 17.094 11.3214 17.4074 14.8091C17.7003 18.0692 19.8521 20.7184 23.1392 20.7542C24.4025 20.7679 25.68 19.8554 25.6768 18.5921C25.6758 18.2014 25.6114 17.8019 25.5105 17.4346C25.3701 16.9234 25.3577 16.3355 25.6493 15.7339C26.67 13.6296 28.6772 13.0644 30.2678 11.9216C30.9732 11.4148 31.6166 10.8801 31.9004 10.4494C32.6839 9.2604 33.4673 6.88238 33.0755 5.69336" stroke="#FDB61C" stroke-width="2.5"/>
<path d="M39.8735 20.7539C39.3223 22.3119 38.9322 26.4017 32.7082 26.4666C32.7082 26.4666 27.1966 26.4666 25.5431 29.5827C24.2203 32.0755 24.9919 34.776 25.5431 35.8147" stroke="#FDB61C" stroke-width="2.5"/>
<path d="M23.1392 35.8162C32.3812 35.8162 39.8734 28.324 39.8734 19.0819C39.8734 9.83983 32.3812 2.34766 23.1392 2.34766C13.8971 2.34766 6.40491 9.83983 6.40491 19.0819C6.40491 28.324 13.8971 35.8162 23.1392 35.8162Z" stroke="#565960" stroke-width="2.5"/>
<path d="M39.694 2.52734C48.8202 11.6536 48.8202 26.4043 39.694 35.5305C30.5677 44.6568 15.817 44.6568 6.69076 35.5305L1.91537 40.3059" stroke="#565960" stroke-width="2.5" stroke-miterlimit="10"/>
<path d="M23.1394 42.4268V50.9163" stroke="#565960" stroke-width="2.5" stroke-miterlimit="10"/>
<path d="M13.5886 50.916H32.6902" stroke="#565960" stroke-width="2.5" stroke-miterlimit="10"/>
</g>
<defs>
<clipPath id="clip0_28_288">
<rect width="50" height="52" fill="white"/>
</clipPath>
</defs>
</svg>
