<svg width="44" height="53" viewBox="0 0 44 53" fill="none" xmlns="http://www.w3.org/2000/svg">
<path d="M28.4167 28V41.3713" stroke="#565960" stroke-width="2.5" stroke-miterlimit="10"/>
<path d="M15.5834 38.704V24.5" stroke="#565960" stroke-width="2.5" stroke-miterlimit="10"/>
<path d="M42.7246 47.5361L41.7783 47.7725L28.2305 51.1602L27.9053 51.2412L27.584 51.1494L16.0508 47.8535L2.8291 51.1602L1.27539 51.5488V14.79L2.22168 14.5527L8.99609 12.8594L10.7617 12.417C10.9198 13.2332 11.1678 14.0345 11.4971 14.8096L9.60254 15.2842L3.77539 16.7412V48.3467L15.7695 45.3477L16.0947 45.2666L27.9482 48.6533L40.2246 45.584V13.9609L33.1094 15.6611C33.579 14.761 33.9236 13.8133 34.1475 12.8428L41.1846 11.1621L42.7246 10.7939V47.5361ZM30.8955 13.6191C30.7546 13.9592 30.5923 14.2921 30.4082 14.6162L30.209 13.7842L30.8955 13.6191ZM14.3799 12.8018L14.6826 14.0137L14.3252 14.1025C13.955 13.3407 13.6983 12.5379 13.5537 11.7188L14.0762 11.5889L14.3799 12.8018Z" fill="#565960"/>
<path d="M17.0225 6.00098C20.1041 2.91891 25.0685 2.86716 28.2041 5.97559H28.2051V5.97656H28.2061V5.97754H28.207V5.97852H28.208V5.97949H28.209V5.98047H28.21V5.98145H28.2109V5.98242H28.2119V5.9834H28.2129V5.98438H28.2139V5.98535H28.2148V5.98633H28.2158V5.9873H28.2168V5.98828H28.2178V5.98926H28.2188V5.99023H28.2197V5.99121H28.2207C28.224 5.99446 28.2272 5.99772 28.2305 6.00098C31.3553 9.12648 31.3648 14.1462 28.2656 17.2461L23.5693 21.9424L22.627 22.8857L16.9873 17.2461C13.8927 14.1509 13.8928 9.13143 16.9873 6.03613L17.0225 6.00098Z" stroke="#FDB61C" stroke-width="2.66667" stroke-miterlimit="10"/>
<path d="M22.5953 13.804C23.6124 13.804 24.4369 12.9793 24.4369 11.962C24.4369 10.9448 23.6124 10.1201 22.5953 10.1201C21.5783 10.1201 20.7538 10.9448 20.7538 11.962C20.7538 12.9793 21.5783 13.804 22.5953 13.804Z" fill="#FDB61C" stroke="#FDB61C" stroke-width="1.49333" stroke-miterlimit="10"/>
</svg>
