<svg width="25" height="24" viewBox="0 0 25 24" fill="none" xmlns="http://www.w3.org/2000/svg">
<g clip-path="url(#clip0_34_1204)">
<path d="M12.5806 1.13281C6.81101 1.13281 2.13171 5.81211 2.13171 11.5817C2.13171 13.3989 2.58601 15.2161 3.49462 16.8062L2.13171 21.9398L7.26532 20.5769C12.2172 23.5299 18.6228 21.8489 21.5758 16.8971C24.5288 11.9452 22.8478 5.53953 17.896 2.58658C16.2605 1.63254 14.4433 1.13281 12.5806 1.13281Z" stroke="#0D1C3D" stroke-width="2" stroke-miterlimit="10"/>
<path d="M8.38701 13.2572C9.31343 13.2572 10.0644 12.5062 10.0644 11.5798C10.0644 10.6533 9.31343 9.90234 8.38701 9.90234C7.4606 9.90234 6.70959 10.6533 6.70959 11.5798C6.70959 12.5062 7.4606 13.2572 8.38701 13.2572Z" fill="#0D1C3D"/>
<path d="M12.5806 13.2572C13.507 13.2572 14.258 12.5062 14.258 11.5798C14.258 10.6533 13.507 9.90234 12.5806 9.90234C11.6542 9.90234 10.9032 10.6533 10.9032 11.5798C10.9032 12.5062 11.6542 13.2572 12.5806 13.2572Z" fill="#0D1C3D"/>
<path d="M16.7741 13.2572C17.7005 13.2572 18.4515 12.5062 18.4515 11.5798C18.4515 10.6533 17.7005 9.90234 16.7741 9.90234C15.8477 9.90234 15.0967 10.6533 15.0967 11.5798C15.0967 12.5062 15.8477 13.2572 16.7741 13.2572Z" fill="#0D1C3D"/>
</g>
<defs>
<clipPath id="clip0_34_1204">
<rect width="25" height="24" fill="white"/>
</clipPath>
</defs>
</svg>
