<svg width="108" height="40" viewBox="0 0 108 40" fill="none" xmlns="http://www.w3.org/2000/svg">
<path d="M106.31 15.0909L105.61 13.0586V15.0909H105.083V12.3812H105.885L106.544 14.4097L107.198 12.3812H108V15.0909H107.473V13.0624L106.777 15.0909H106.31Z" fill="white"/>
<path d="M103.315 15.0909V12.8742H102.461V12.3812H104.726V12.8742H103.872V15.0909H103.315Z" fill="white"/>
<path d="M91.7928 31.3351L93.578 26.9038L89.1467 16.214H91.7718L94.7541 24.1106L97.7153 16.214H100.319L94.145 31.3351H91.7928Z" fill="white"/>
<path d="M85.3126 27.1348V12.0137H87.7277V27.1348H85.3126Z" fill="white"/>
<path d="M82.8441 16.214V31.3351H80.4289V25.7277C79.6728 26.7568 78.5387 27.3868 77.0056 27.3868C73.7924 27.3868 72.0493 24.9297 72.0493 21.6744C72.0493 18.4192 73.7924 15.962 77.0056 15.962C78.6017 15.962 79.7568 16.634 80.5129 17.7471V16.214H82.8441ZM74.5274 21.6744C74.5274 23.8376 75.4725 25.3287 77.5097 25.3287C79.5258 25.3287 80.4709 23.8376 80.4709 21.6744C80.4709 19.5113 79.5258 18.0201 77.5097 18.0201C75.4725 18.0201 74.5274 19.5113 74.5274 21.6744Z" fill="white"/>
<path d="M66.0843 27.3868C63.2701 27.3868 61.338 26.2738 61.17 23.5436H63.5431C63.7111 25.0767 64.6142 25.5807 66.1473 25.5807C67.5124 25.5807 68.3945 25.0767 68.3945 24.1946C68.3945 23.3755 68.0795 22.9975 65.7693 22.6195C62.388 22.0524 61.443 20.9604 61.443 19.1962C61.443 17.1801 63.2281 15.962 65.8323 15.962C68.8775 15.962 70.5156 17.3691 70.5576 19.6583H68.2685C68.2055 18.1462 67.1134 17.7681 65.8323 17.7681C64.6982 17.7681 63.8371 18.2512 63.8371 19.1122C63.8371 19.9523 64.3412 20.2883 66.5463 20.6453C69.8646 21.2124 70.8097 22.2205 70.8097 24.0476C70.8097 26.2108 68.8355 27.3868 66.0843 27.3868Z" fill="white"/>
<path d="M57.0824 27.1348V16.214H59.4975V27.1348H57.0824ZM57.0824 14.3869V12.0137H59.4975V14.3869H57.0824Z" fill="white"/>
<path d="M43.1575 27.1348V12.0137H49.668C53.3223 12.0137 55.1074 14.1349 55.1074 16.7811C55.1074 18.8812 53.8893 20.6033 51.6211 21.2544L55.5904 27.1348H52.6292L48.9749 21.5274H45.7407V27.1348H43.1575ZM45.7407 19.3432H49.563C51.5581 19.3432 52.4822 18.3352 52.4822 16.7811C52.4822 15.2269 51.5581 14.2189 49.563 14.2189H45.7407V19.3432Z" fill="white"/>
<path d="M17.7253 21.6077L22.7157 21.5892L22.7618 34.2573C22.7725 37.0089 20.5414 39.2554 17.7898 39.2661C15.0381 39.2769 12.7916 37.0458 12.7809 34.2941L12.7778 31.8373L15.0704 30.4476L15.0842 34.2864C15.0903 35.7682 16.2988 36.969 17.7805 36.9644C19.2623 36.9598 20.4631 35.7498 20.4585 34.268L20.4201 23.9033L17.7253 21.6092V21.6077Z" fill="white"/>
<path d="M22.6782 21.6267L17.8247 21.6444L20.4444 23.8745L20.4577 23.8855V23.9032L20.4959 34.2682C20.5004 35.7706 19.2831 36.9971 17.7806 37.0018C16.2781 37.0064 15.0524 35.789 15.0462 34.2865L15.033 30.5135L12.8153 31.8586L12.8183 34.2939C12.8289 37.0247 15.0587 39.2388 17.7894 39.2283C20.5203 39.2176 22.7345 36.988 22.7238 34.2571L22.6782 21.6267ZM22.7937 34.5151C22.6692 37.1686 20.4759 39.2934 17.7901 39.304C15.0178 39.3148 12.7543 37.0669 12.7433 34.2946L12.7403 31.8373V31.816L12.758 31.805L15.0506 30.4157L15.1079 30.3812V30.4473L15.1219 34.2865C15.1281 35.7474 16.3197 36.9314 17.7806 36.9268C19.1959 36.9224 20.3513 35.8024 20.418 34.4041L20.4209 34.2682L20.3827 23.9201L17.7012 21.6377L17.688 21.6267V21.5701H17.7255L22.7157 21.5517H22.7532V21.5892L22.7995 34.2571L22.7937 34.5151Z" fill="white"/>
<path d="M16.0292 20.6366L18.5398 24.9499L7.59152 31.3238C5.213 32.7089 2.15271 31.8996 0.76767 29.5227C-0.617368 27.1441 0.191851 24.0838 2.56883 22.6988L4.69553 21.4673L7.04487 22.7572L3.72662 24.6888C2.44599 25.4351 2.01144 27.0827 2.75617 28.3633C3.50089 29.644 5.15004 30.0785 6.43066 29.3338L15.3873 24.1192L16.0261 20.6381L16.0292 20.6366Z" fill="white"/>
<path d="M16.062 20.6175L18.5722 24.9308L18.5914 24.9631L18.559 24.9822L7.61041 31.3566C5.21402 32.7519 2.131 31.9364 0.735463 29.5418C-0.660013 27.1453 0.154761 24.0616 2.54957 22.6661L4.67681 21.4349L4.69519 21.4238L4.71357 21.4341L7.1216 22.7565L7.06353 22.7896L3.7455 24.7213C2.4829 25.4571 2.0543 27.0817 2.78846 28.3444C3.52268 29.6069 5.14887 30.0355 6.41154 29.3014L15.3534 24.095L15.9893 20.6315L15.9922 20.6131L16.0091 20.6043L16.0121 20.6028L16.0437 20.5874L16.062 20.6175ZM15.424 24.1259L15.4211 24.1428L15.4064 24.1516L6.44976 29.3661C5.15131 30.1212 3.47906 29.681 2.72378 28.3826C1.96861 27.084 2.40944 25.4133 3.70801 24.6566L6.96797 22.758L4.69519 21.5098L2.5878 22.7315C0.228854 24.1061 -0.574289 27.143 0.800148 29.5035C2.17473 31.8626 5.21238 32.6658 7.57292 31.2912L18.4884 24.9359L16.0451 20.7388L15.424 24.1259Z" fill="white"/>
<path d="M16.0208 18.6808L13.5409 23.011L2.54815 16.7169C0.158881 15.3503 -0.670299 12.2946 0.696313 9.90686C2.06292 7.51913 5.11861 6.68841 7.50634 8.05502L9.6361 9.28037L9.69445 11.9598L6.36238 10.0527C5.07715 9.31722 3.43107 9.76406 2.69556 11.0493C1.96004 12.3345 2.40688 13.9806 3.69211 14.7161L12.6872 19.8662L16.0208 18.6793V18.6808Z" fill="white"/>
<path d="M0.663349 9.88795C2.0403 7.4822 5.11931 6.64546 7.52506 8.02239L9.65451 9.24772L9.67362 9.25801V9.27933L9.7339 12.0255L9.67583 11.9924L6.34383 10.0857C5.07667 9.36051 3.45333 9.80066 2.72811 11.0677C2.00291 12.3349 2.44371 13.9583 3.71088 14.6834L12.691 19.8244L16.0083 18.6439L16.0583 18.6263V18.6909L16.0531 18.6998L13.5738 23.03L13.5547 23.0623L13.5224 23.0439L2.52965 16.7497C0.122312 15.3727 -0.713577 12.2937 0.663349 9.88795ZM7.48758 8.08781C5.11788 6.73152 2.08505 7.55575 0.728769 9.92544C-0.627525 12.2952 0.195937 15.328 2.56713 16.6842L13.5268 22.9594L15.9392 18.7475L12.6998 19.9016L12.6837 19.9075L3.67339 14.7489C2.37022 14.0031 1.91716 12.3342 2.66269 11.031C3.40854 9.72767 5.07807 9.27444 6.38132 10.0203L9.65524 11.8932L9.59865 9.30212L7.48758 8.08781Z" fill="white"/>
<path d="M17.7115 17.696L12.7211 17.7145L12.675 5.04643C12.6643 2.29478 14.8954 0.048314 17.6471 0.0375653C20.3987 0.0268167 22.6452 2.25793 22.6559 5.00958L22.659 7.46641L20.3665 8.85605L20.3526 5.01725C20.3465 3.53548 19.138 2.3347 17.6563 2.33931C16.1745 2.34391 14.9737 3.5539 14.9783 5.03568L15.0167 15.4004L17.7115 17.6945V17.696Z" fill="white"/>
<path d="M22.6181 5.00942C22.6072 2.27867 20.3776 0.0643473 17.6469 0.0750143C14.9162 0.0858442 12.7019 2.31548 12.7125 5.04617L12.7581 17.6758L17.6116 17.6582L14.9926 15.4288L14.9794 15.4178V15.4009L14.9404 5.03588C14.9358 3.53335 16.1539 2.30616 17.6565 2.30149C19.1588 2.29698 20.3837 3.5145 20.3901 5.01677L20.4033 8.78833L22.6203 7.44538L22.6181 5.00942ZM22.6967 7.4667V7.48728L22.6783 7.49831L20.3857 8.88829L20.3291 8.92284V8.85595L20.3151 5.01751C20.3091 3.5565 19.1174 2.37269 17.6565 2.3772C16.1955 2.38174 15.0116 3.57486 15.0161 5.03588L15.0536 15.3825L17.7358 17.6656L17.7491 17.6773V17.7332L17.7116 17.7339L12.7213 17.7523H12.6838V17.7148L12.6375 5.04691C12.6267 2.27446 14.8745 0.010873 17.6469 3.89701e-05C20.4194 -0.0107909 22.6829 2.23701 22.6938 5.00942L22.6967 7.4667Z" fill="white"/>
<path d="M19.4091 18.6698L16.8985 14.3565L27.8468 7.98254C30.2253 6.59751 33.2856 7.40672 34.6706 9.78371C36.0557 12.1622 35.2465 15.2225 32.8695 16.6076L30.7428 17.839L28.3934 16.5492L31.7117 14.6175C32.9923 13.8713 33.4269 12.2236 32.6821 10.943C31.9374 9.6624 30.2883 9.22785 29.0076 9.97258L20.051 15.1872L19.4122 18.6682L19.4091 18.6698Z" fill="white"/>
<path d="M27.828 7.95034C30.2244 6.55489 33.3074 7.36977 34.703 9.76445C36.0985 12.1609 35.283 15.2446 32.8881 16.6401L30.7616 17.8713L30.7432 17.8824L30.7249 17.8721L28.3756 16.5821L28.3168 16.5504L28.3742 16.5166L31.6929 14.5849C32.9554 13.8491 33.3842 12.2244 32.65 10.9618C31.9158 9.69936 30.2895 9.27082 29.0269 10.0048L20.0842 15.2104L19.4492 18.6748L19.4455 18.6931L19.4293 18.7019L19.4256 18.7034L19.394 18.7189L19.3764 18.6887L16.8662 14.3754L16.8471 14.3431L16.8794 14.324L27.828 7.95034ZM34.6383 9.80267C33.2637 7.44363 30.2261 6.64045 27.8655 8.01502L16.9492 14.3695L19.3918 18.5652L20.0137 15.1803L20.0174 15.1634L20.0321 15.1546L28.9887 9.94012C30.2872 9.18497 31.9595 9.62573 32.7147 10.9244C33.4697 12.2229 33.0289 13.8937 31.7304 14.6503L28.4705 16.5475L30.7425 17.7956L32.8506 16.5747C35.2095 15.2001 36.0127 12.1631 34.6383 9.80267Z" fill="white"/>
<path d="M19.4168 20.6241L21.8967 16.2939L32.891 22.588C35.2787 23.9546 36.1094 27.0103 34.7428 29.398C33.3762 31.7858 30.3205 32.6165 27.9328 31.2499L25.803 30.0245L25.7447 27.345L29.0768 29.2522C30.362 29.9877 32.0081 29.5408 32.7436 28.2556C33.4791 26.9704 33.0323 25.3243 31.747 24.5888L22.752 19.4387L19.4184 20.6256L19.4168 20.6241Z" fill="white"/>
<path d="M21.9153 16.2616L32.9094 22.5551C35.3152 23.932 36.1526 27.011 34.7757 29.4168C33.3988 31.8226 30.3198 32.6593 27.914 31.2824L25.7846 30.057L25.7662 30.0467L25.7655 30.0254L25.7059 27.2793L25.7633 27.3124L29.0953 29.2198C30.3624 29.945 31.9858 29.5042 32.711 28.237C33.4362 26.9698 32.9954 25.3465 31.7282 24.6213L22.7473 19.4796L19.4308 20.6609L19.4087 20.6689L19.3698 20.63L19.3845 20.6057L21.8638 16.2755L21.8829 16.2425L21.9153 16.2616ZM19.4977 20.5572L22.7393 19.4032L22.7554 19.3973L31.7657 24.5559C33.069 25.3018 33.5222 26.9713 32.7764 28.2745C32.0305 29.5777 30.361 30.0303 29.0578 29.2845L25.7831 27.4108L25.8397 30.0019L27.9515 31.2169L28.1757 31.3382C30.5092 32.5205 33.3965 31.6749 34.7103 29.3793C36.0665 27.0096 35.2416 23.9768 32.872 22.6205L21.9101 16.3446L19.4977 20.5572Z" fill="white"/>
</svg>
