<svg width="32" height="26" viewBox="0 0 32 26" fill="none" xmlns="http://www.w3.org/2000/svg">
<path d="M16.7423 6.71536C16.6878 4.5487 18.4841 2.70703 20.6615 2.70703C20.7159 2.70703 20.7703 2.70703 20.8248 2.70703C23.0566 2.70703 25.0162 4.49453 24.9073 6.71536C24.9073 7.1487 24.4718 9.4237 24.4718 9.4237C24.1452 11.3737 22.8388 12.9987 20.8248 12.9987C18.8107 12.9987 17.5588 11.3737 17.1777 9.4237C17.1777 9.4237 16.7423 7.20286 16.7423 6.71536Z" stroke="#0D1C3D" stroke-width="2" stroke-miterlimit="10"/>
<path d="M11.7544 23.2909H29.8948L29.5682 19.3909C29.4049 17.9284 27.8808 16.8992 26.3567 16.6284L20.8246 15.7617L15.2382 16.6284C13.5507 16.9534 12.081 17.8742 11.9722 19.5534L11.7544 23.2909Z" stroke="#0D1C3D" stroke-width="2" stroke-miterlimit="10"/>
<path d="M7.12765 9.42578C7.12765 7.63828 8.59735 6.17578 10.3937 6.17578C12.19 6.17578 13.6597 7.63828 13.6597 9.42578C13.6597 9.80495 13.2786 11.5383 13.2786 11.5383C13.0065 13.0549 11.9722 14.3549 10.3937 14.3549C8.81509 14.3549 7.78085 13.0549 7.50868 11.5383C7.45425 11.5383 7.12765 9.75078 7.12765 9.42578Z" stroke="#0D1C3D" stroke-width="2" stroke-miterlimit="10"/>
<path d="M10.3936 16.7891L5.00464 17.4391C3.69824 17.6557 2.5007 18.4141 2.39183 19.8224L2.22853 23.2891H8.48838" stroke="#0D1C3D" stroke-width="2" stroke-miterlimit="10"/>
</svg>
