<svg width="55" height="55" viewBox="0 0 55 55" fill="none" xmlns="http://www.w3.org/2000/svg">
<g clip-path="url(#clip0_28_607)">
<path d="M1.14478 5.729H50.8531V40.104C50.8531 45.1457 46.7281 49.2707 41.6864 49.2707H10.3114C5.26978 49.2707 1.14478 45.1457 1.14478 40.104V5.729Z" stroke="#78716C" stroke-width="2.5" stroke-miterlimit="10"/>
<path d="M1.14478 17.1875H50.5" stroke="#78716C" stroke-width="2.5" stroke-miterlimit="10"/>
<path d="M6.87394 13.7498C8.13959 13.7498 9.16561 12.7238 9.16561 11.4582C9.16561 10.1925 8.13959 9.1665 6.87394 9.1665C5.60829 9.1665 4.58228 10.1925 4.58228 11.4582C4.58228 12.7238 5.60829 13.7498 6.87394 13.7498Z" fill="#FDB61C"/>
<path d="M13.7489 13.7498C15.0146 13.7498 16.0406 12.7238 16.0406 11.4582C16.0406 10.1925 15.0146 9.1665 13.7489 9.1665C12.4833 9.1665 11.4573 10.1925 11.4573 11.4582C11.4573 12.7238 12.4833 13.7498 13.7489 13.7498Z" fill="#FDB61C"/>
<path d="M20.6239 13.7498C21.8896 13.7498 22.9156 12.7238 22.9156 11.4582C22.9156 10.1925 21.8896 9.1665 20.6239 9.1665C19.3583 9.1665 18.3323 10.1925 18.3323 11.4582C18.3323 12.7238 19.3583 13.7498 20.6239 13.7498Z" fill="#FDB61C"/>
</g>
<defs>
<clipPath id="clip0_28_607">
<rect width="55" height="55" fill="white"/>
</clipPath>
</defs>
</svg>
